<svg width="16" height="12" viewBox="0 0 16 12" fill="none" xmlns="http://www.w3.org/2000/svg">
<path d="M8.99978 0.666992H6.99978C4.49407 0.666992 3.24121 0.666992 2.40475 1.32757C2.27097 1.43323 2.14724 1.54968 2.03498 1.67559C1.56786 2.19954 1.41163 2.89709 1.35938 4.00033H14.6402C14.5879 2.89709 14.4317 2.19954 13.9646 1.67559C13.8523 1.54968 13.7286 1.43323 13.5948 1.32757C12.7584 0.666992 11.5055 0.666992 8.99978 0.666992Z" fill="white"/>
<path d="M7.33337 11.3337H7.00004C4.49432 11.3337 3.24146 11.3337 2.40501 10.6731C2.27123 10.5674 2.1475 10.451 2.03524 10.3251C1.33337 9.53781 1.33337 8.35865 1.33337 6.00033C1.33337 3.642 1.33337 2.46284 2.03524 1.67559C2.1475 1.54968 2.27123 1.43323 2.40501 1.32757C3.24146 0.666992 4.49432 0.666992 7.00004 0.666992H9.00004C11.5058 0.666992 12.7586 0.666992 13.5951 1.32757C13.7289 1.43323 13.8526 1.54968 13.9648 1.67559C14.5972 2.38488 14.6598 3.41232 14.666 5.33366" stroke="#001735" stroke-linecap="round" stroke-linejoin="round"/>
<path d="M1.33337 4H14.6667" stroke="#001735" stroke-linejoin="round"/>
<path d="M9.33337 10.0007C9.33337 10.0007 10 10.0007 10.6667 11.334C10.6667 11.334 12.7844 8.00065 14.6667 7.33398" stroke="#001735" stroke-linecap="round" stroke-linejoin="round"/>
</svg>
