<svg width="52" height="52" viewBox="0 0 52 52" fill="none" xmlns="http://www.w3.org/2000/svg">
<g filter="url(#filter0_d_2792_2961)">
<rect x="2" y="1" width="48" height="48" rx="10" fill="white"/>
<rect x="2.5" y="1.5" width="47" height="47" rx="9.5" stroke="#EAECF0"/>
<path d="M26 21V29M22 25H30M21.8 34H30.2C31.8802 34 32.7202 34 33.362 33.673C33.9265 33.3854 34.3854 32.9265 34.673 32.362C35 31.7202 35 30.8802 35 29.2V20.8C35 19.1198 35 18.2798 34.673 17.638C34.3854 17.0735 33.9265 16.6146 33.362 16.327C32.7202 16 31.8802 16 30.2 16H21.8C20.1198 16 19.2798 16 18.638 16.327C18.0735 16.6146 17.6146 17.0735 17.327 17.638C17 18.2798 17 19.1198 17 20.8V29.2C17 30.8802 17 31.7202 17.327 32.362C17.6146 32.9265 18.0735 33.3854 18.638 33.673C19.2798 34 20.1198 34 21.8 34Z" stroke="#344054" stroke-width="1.5" stroke-linecap="round" stroke-linejoin="round"/>
</g>
<defs>
<filter id="filter0_d_2792_2961" x="0" y="0" width="52" height="52" filterUnits="userSpaceOnUse" color-interpolation-filters="sRGB">
<feFlood flood-opacity="0" result="BackgroundImageFix"/>
<feColorMatrix in="SourceAlpha" type="matrix" values="0 0 0 0 0 0 0 0 0 0 0 0 0 0 0 0 0 0 127 0" result="hardAlpha"/>
<feOffset dy="1"/>
<feGaussianBlur stdDeviation="1"/>
<feColorMatrix type="matrix" values="0 0 0 0 0.0627451 0 0 0 0 0.0941176 0 0 0 0 0.156863 0 0 0 0.05 0"/>
<feBlend mode="normal" in2="BackgroundImageFix" result="effect1_dropShadow_2792_2961"/>
<feBlend mode="normal" in="SourceGraphic" in2="effect1_dropShadow_2792_2961" result="shape"/>
</filter>
</defs>
</svg>
